<?xml version="1.0" encoding="utf-8"?>
<!-- Generator: Adobe Illustrator 16.0.0, SVG Export Plug-In . SVG Version: 6.00 Build 0)  -->
<!DOCTYPE svg PUBLIC "-//W3C//DTD SVG 1.1//EN" "http://www.w3.org/Graphics/SVG/1.1/DTD/svg11.dtd">
<svg version="1.1" id="Layer_1" xmlns="http://www.w3.org/2000/svg" xmlns:xlink="http://www.w3.org/1999/xlink" x="0px" y="0px"
	 width="143.722px" height="143.723px" viewBox="0 0 143.722 143.723" enable-background="new 0 0 143.722 143.723"
	 xml:space="preserve">
<circle fill="#35C2F2" stroke="#000000" stroke-width="2" stroke-miterlimit="10" cx="71.861" cy="71.861" r="70.861"/>
<circle fill="#FFFFFF" stroke="#000000" stroke-width="5" stroke-miterlimit="10" cx="71.861" cy="71.861" r="60.166"/>
<rect x="66.861" y="1" width="10" height="10.695"/>
<rect x="132.027" y="66.863" width="10.694" height="10"/>
<rect x="114.152" y="19.995" transform="matrix(0.7071 -0.7071 0.7071 0.7071 17.1001 91.2736)" width="9.151" height="10"/>
<rect x="20.418" y="113.729" transform="matrix(0.7071 -0.7072 0.7072 0.7071 -76.6388 52.4563)" width="9.153" height="10.001"/>
<rect x="113.027" y="114.029" transform="matrix(0.7071 -0.7072 0.7072 0.7071 -49.5971 118.3324)" width="10.001" height="10.001"/>
<rect x="19.694" y="20.694" transform="matrix(0.707 -0.7072 0.7072 0.707 -10.9366 24.9924)" width="10" height="10.002"/>
<rect x="1" y="66.861" width="10.695" height="10"/>
<rect x="66.861" y="132.029" width="10" height="10.693"/>
</svg>
